<?xml version="1.0" encoding="utf-8"?>
<!-- Generator: Adobe Illustrator 24.0.0, SVG Export Plug-In . SVG Version: 6.00 Build 0)  -->
<svg version="1.1" id="Layer_1" xmlns="http://www.w3.org/2000/svg" xmlns:xlink="http://www.w3.org/1999/xlink" x="0px" y="0px"
	 viewBox="0 0 200 44" style="enable-background:new 0 0 200 44;" xml:space="preserve">
<style type="text/css">
	.st0{fill:#FFFFFF;}
</style>
<g>
	<path class="st0" d="M27.8,3.8L10.4,43.4H6.8L26,0.7h3.6l19.2,42.7h-3.6L27.8,3.8z"/>
	<path class="st0" d="M98.9,0.7v39.6h24v3.1H95.6V0.7H98.9z"/>
	<g>
		<polygon class="st0" points="132.4,40.2 132.4,3.8 158.6,3.8 158.6,0.7 129.2,0.7 129.2,43.4 159.4,43.4 159.4,40.2 		"/>
		<rect x="137.5" y="20.4" class="st0" width="19.9" height="3"/>
	</g>
	<rect x="165.9" y="0.7" class="st0" width="34.1" height="3"/>
	<rect x="181.3" y="8.8" class="st0" width="3.3" height="35.1"/>
	<g>
		<polygon class="st0" points="19.2,0.7 0,43.4 3.6,43.4 22.3,0.7 		"/>
	</g>
	<path class="st0" d="M70.4,21.1v2.9h14.9v11.9c-3.7,3.4-8.5,5-13,5c-12.5,0-18.8-8.7-18.8-18.7c-0.1-9.9,6.4-19,18.8-19
		c4.8,0,10,1.8,13.7,5.5l1.9-2.1c-4.4-4.3-10-6.4-15.6-6.4c-13,0-22.1,8.7-22,22.1c0,11.7,7.5,21.8,22,21.8c6.4,0,11.7-2.4,16.1-6.9
		v-16H70.4z"/>
</g>
</svg>
